<svg width="47" height="47" viewBox="0 0 47 47" fill="none" xmlns="http://www.w3.org/2000/svg">
<rect width="47" height="47" rx="23.5" fill="black"/>
<rect x="11" y="10" width="27" height="27" fill="white"/>
<path fill-rule="evenodd" clip-rule="evenodd" d="M29.1593 14.5645H17.8408C16.0344 14.5645 14.5645 16.0343 14.5645 17.8408V29.1592C14.5645 30.966 16.0344 32.4359 17.8408 32.4359H29.1593C30.966 32.4359 32.436 30.966 32.436 29.1592V17.8408C32.436 16.0344 30.966 14.5645 29.1593 14.5645ZM23.4998 29.3833C20.2561 29.3833 17.6168 26.7439 17.6168 23.4998C17.6168 20.2561 20.2561 17.6168 23.4998 17.6168C26.7439 17.6168 29.3833 20.2561 29.3833 23.4998C29.3833 26.7439 26.7439 29.3833 23.4998 29.3833ZM29.5726 18.8333C28.8046 18.8333 28.1801 18.2089 28.1801 17.4413C28.1801 16.6737 28.8046 16.0493 29.5726 16.0493C30.3401 16.0493 30.9646 16.6737 30.9646 17.4413C30.9646 18.209 30.3401 18.8333 29.5726 18.8333Z" fill="black"/>
<path fill-rule="evenodd" clip-rule="evenodd" d="M23.4998 20.103C21.6272 20.103 20.1023 21.6272 20.1023 23.4998C20.1023 25.3731 21.6272 26.8976 23.4998 26.8976C25.373 26.8976 26.8968 25.3731 26.8968 23.4998C26.8968 21.6272 25.373 20.103 23.4998 20.103Z" fill="black"/>
<path fill-rule="evenodd" clip-rule="evenodd" d="M7 7V40H40V7H7ZM34.9216 29.1592C34.9216 32.3371 32.3371 34.9216 29.1593 34.9216H17.8408C14.6633 34.9216 12.0784 32.3371 12.0784 29.1592V17.8408C12.0784 14.6633 14.6633 12.0784 17.8408 12.0784H29.1593C32.3371 12.0784 34.9216 14.6633 34.9216 17.8408V29.1592Z" fill="black"/>
</svg>
