<svg width="47" height="47" viewBox="0 0 47 47" fill="none" xmlns="http://www.w3.org/2000/svg">
<rect width="47" height="47" rx="23.5" fill="black"/>
<g clip-path="url(#clip0_226_802)">
<path d="M37 30.7077V16.2915L29.1921 23.4995L37 30.7077Z" fill="white"/>
<path d="M10 16.291V30.7087L17.8077 23.4998L10 16.291Z" fill="white"/>
<path d="M10.7386 14.5694C10.7386 14.5694 22.2587 25.2058 22.3604 25.2998C22.6903 25.6036 23.0846 25.7645 23.5 25.7645C23.9154 25.7645 24.3092 25.6037 24.6389 25.2996C24.6389 25.2996 36.1559 14.6677 36.2621 14.5695C36.5091 14.3413 36.6999 14.0509 36.8258 13.7236H10.1743C10.3004 14.0509 10.4914 14.3413 10.7386 14.5694V14.5694Z" fill="white"/>
<path d="M36.2617 32.4296L27.8903 24.7012C27.8903 24.7012 25.6406 26.778 25.5987 26.8138C24.9919 27.3765 24.2657 27.673 23.4998 27.673C22.7346 27.673 22.0083 27.3767 21.3995 26.8161L19.109 24.7013C14.9324 28.5573 10.7384 32.43 10.7384 32.43C10.4912 32.6581 10.3002 32.9486 10.1741 33.2758H36.8257C36.6997 32.9484 36.5088 32.6579 36.2617 32.4296V32.4296Z" fill="white"/>
</g>
<defs>
<clipPath id="clip0_226_802">
<rect x="10" y="14" width="27" height="19" rx="3" fill="white"/>
</clipPath>
</defs>
</svg>
