<svg width="47" height="47" viewBox="0 0 47 47" fill="none" xmlns="http://www.w3.org/2000/svg">
<g clip-path="url(#clip0_226_631)">
<circle cx="23.5" cy="22.5" r="15.5" fill="white"/>
<path d="M21.4778 20.8127C19.604 19.8851 20.6522 17.9989 23.3114 17.9989C26.9817 17.9989 25.7851 20.9735 28.0578 20.9735C29.9501 20.9735 30.5809 18.5679 28.2402 16.7559C25.7016 14.8017 19.8049 14.9594 17.7951 17.5475C17.2799 18.2165 16.9971 19.0355 16.9899 19.8799C16.9826 20.7243 17.2512 21.548 17.7549 22.2258C19.9193 24.8943 24.6379 24.2883 26.2891 25.8127C26.9075 26.3909 27.0188 27.5968 25.8716 28.3637C24.7245 29.1305 22.7146 29.1027 21.787 28.6729C19.7616 27.7205 20.3955 25.3829 18.3857 25.3829C15.7265 25.3829 16.2738 29.0934 19.3566 30.7291C21.5211 31.8608 25.0924 31.8547 27.2631 30.961C29.2266 30.1633 30.4851 28.6327 30.4882 26.5919C30.4882 21.6445 24.0195 22.0743 21.4778 20.8127Z" fill="black"/>
<path d="M23.5 0C18.8521 0 14.3087 1.37825 10.4441 3.96046C6.57956 6.54268 3.5675 10.2129 1.78884 14.5069C0.0101821 18.801 -0.455196 23.5261 0.451557 28.0846C1.35831 32.6432 3.59647 36.8305 6.883 40.117C10.1695 43.4035 14.3568 45.6417 18.9154 46.5485C23.4739 47.4552 28.199 46.9898 32.4931 45.2112C36.7871 43.4325 40.4573 40.4205 43.0395 36.5559C45.6218 32.6913 47 28.1479 47 23.5C47 17.2674 44.5241 11.2901 40.117 6.88299C35.7099 2.47589 29.7326 0 23.5 0V0ZM25.7758 35.0459C17.5106 36.5456 10.4049 29.3441 12.0592 21.283C11.4495 20.2533 11.1291 19.0782 11.1316 17.8816C11.1316 12.5354 17.1117 9.38763 21.6046 12.1736C29.879 10.7729 36.9228 18.0764 35.1325 26.1221C38.0793 31.9724 31.6199 38.1349 25.7758 35.0459Z" fill="black"/>
</g>
<defs>
<clipPath id="clip0_226_631">
<rect width="47" height="47" fill="white"/>
</clipPath>
</defs>
</svg>
