<svg width="47" height="47" viewBox="0 0 47 47" fill="none" xmlns="http://www.w3.org/2000/svg">
<rect width="47" height="47" rx="23.5" fill="black"/>
<g clip-path="url(#clip0_226_655)">
<path d="M9.45924 22.5362L15.4502 24.7722L17.769 32.2296C17.9174 32.7072 18.5014 32.8837 18.8891 32.5668L22.2285 29.8444C22.5786 29.5592 23.0772 29.545 23.443 29.8105L29.4662 34.1835C29.8808 34.4849 30.4684 34.2577 30.5724 33.7565L34.9847 12.5327C35.0982 11.9853 34.5603 11.5286 34.0391 11.7302L9.45222 21.2151C8.84546 21.4491 8.85075 22.3081 9.45924 22.5362ZM17.3953 23.5819L29.1038 16.3706C29.3142 16.2414 29.5307 16.5259 29.35 16.6935L19.6871 25.6757C19.3475 25.9918 19.1284 26.4149 19.0663 26.8742L18.7372 29.3135C18.6936 29.6392 18.2361 29.6715 18.1462 29.3563L16.8802 24.9081C16.7353 24.4008 16.9465 23.8589 17.3953 23.5819Z" fill="white"/>
</g>
<defs>
<clipPath id="clip0_226_655">
<rect width="26" height="26" fill="white" transform="translate(9 10)"/>
</clipPath>
</defs>
</svg>
